<svg xmlns="http://www.w3.org/2000/svg" height="48" viewBox="0 96 960 960" width="48"><path d="M434.423 810.999q-113.906 0-195.164-79.931-81.258-79.931-81.258-191.222V278.385q0-22.696 17.844-40.54 17.844-17.844 40.54-17.844h520.152q54.443 0 91.413 36.716 36.971 36.716 36.971 89.692 0 52.976-36.971 89.629-36.97 36.654-91.413 36.654h-25.692v67.154q0 111.291-81.258 191.222-81.258 79.931-195.164 79.931ZM216.385 414.308h436.076V278.385H216.385v135.923Zm218.158 338.307q89.764 0 153.841-62.738 64.077-62.739 64.077-150.031v-67.154H216.385v67.154q0 87.292 64.197 150.031 64.197 62.738 153.961 62.738Zm276.302-338.307h25.82q29.423 0 49.648-19.558 20.224-19.559 20.224-48.286 0-28.726-20.26-48.403-20.261-19.676-49.644-19.676h-25.788v135.923ZM158.001 931.999v-58.384h622.766v58.384H158.001Zm276.614-459.307Z"/></svg>